<svg version="1.1" viewBox="0 0 36 36" xmlns="http://www.w3.org/2000/svg">
<circle cx="18" cy="18" r="18" fill="#FFCC4D"/>
<path d="M20.996 28.477a.978.978 0 0 1-.309-.049 8.647 8.647 0 0 0-5.375 0 1 1 0 1 1-.617-1.902 10.633 10.633 0 0 1 6.609 0c.525.172.813.736.643 1.26a1.002 1.002 0 0 1-.951.691Zm7.998-18.466A1.005 1.005 0 0 0 28.011 9c-.067-.001-1.653-.056-3.304-1.707a1 1 0 1 0-1.414 1.414C25.56 10.974 27.901 11 28 11a.995.995 0 0 0 .994-.989ZM12.707 8.707a.998.998 0 0 0-.324-1.63 1 1 0 0 0-1.09.216C9.652 8.934 8.075 8.998 7.99 9A1 1 0 0 0 8 11c.099 0 2.44-.026 4.707-2.293Z" fill="#65471B"/>
<g>
<path d="m11.5 12a5.5 5.5 0 0 0 0 11 5.5 5.5 0 0 0 0-11zm13 0a5.5 5.5 0 0 0 0 11 5.5 5.5 0 0 0 0-11z" fill="#fff"/>
<path d="m11.5 12a5 5 0 0 0 0 10 5 5 0 0 0 0-10zm13 0a5 5 0 0 0 0 10 5 5 0 0 0 0-10z" fill="#292f33"/>
<path d="m10.385 12.967c-0.67421 0.019863-1.4075 0.33797-1.9941 0.92578-1.045 1.046-1.231 2.5513-0.41797 3.3633 0.814 0.813 2.3212 0.62508 3.3652-0.41992 1.044-1.046 1.229-2.5513 0.41602-3.3633-0.35569-0.35569-0.84475-0.52131-1.3691-0.50586zm13 0c-0.67421 0.019863-1.4075 0.33797-1.9941 0.92578-1.045 1.046-1.231 2.5513-0.41797 3.3633 0.814 0.813 2.3212 0.62508 3.3652-0.41992 1.044-1.046 1.229-2.5513 0.41602-3.3633-0.35569-0.35569-0.84475-0.52131-1.3691-0.50586zm-9.1777 5.0156c-0.29624 0.008859-0.61877 0.14806-0.87695 0.40625-0.458 0.459-0.54059 1.1196-0.18359 1.4766 0.357 0.357 1.0186 0.27541 1.4766-0.18359 0.46-0.459 0.54255-1.1215 0.18555-1.4785-0.15619-0.15619-0.37116-0.22759-0.60156-0.2207zm13 0c-0.29624 0.008859-0.61877 0.14806-0.87695 0.40625-0.458 0.459-0.54059 1.1196-0.18359 1.4766 0.357 0.357 1.0195 0.27541 1.4785-0.18359 0.458-0.459 0.54059-1.1215 0.18359-1.4785-0.15619-0.15619-0.37116-0.22759-0.60156-0.2207z" fill="#fff"/>
</g>
</svg>
