<svg version="1.1" viewBox="0 0 36 36" xmlns="http://www.w3.org/2000/svg">
<circle cx="18" cy="18" r="18" fill="#FFCC4D"/>
<path d="m22.657 25.637a0.513 0.513 0 0 1 0.597-0.06 0.497 0.497 0 0 1 0.231 0.544c-0.011 0.044-1.145 4.379-5.485 4.379s-5.474-4.335-5.484-4.38a0.5 0.5 0 0 1 0.838-0.474s1.005 0.854 4.646 0.854c3.644 0 4.647-0.855 4.657-0.863z" fill="#664500"/>
<path d="m28.994 10.011a1.005 1.005 0 0 0-0.983-1.011c-0.067-1e-3 -1.653-0.056-3.304-1.707a1 1 0 1 0-1.414 1.414c2.267 2.267 4.608 2.293 4.707 2.293a0.995 0.995 0 0 0 0.994-0.989zm-16.287-1.304a0.998 0.998 0 0 0-0.324-1.63 1 1 0 0 0-1.09 0.216c-1.641 1.641-3.218 1.705-3.303 1.707a1 1 0 0 0 0.01 2c0.099 0 2.44-0.026 4.707-2.293z" fill="#65471b"/>
<path d="m11.5 12a5.5 5.5 0 0 0 0 11 5.5 5.5 0 0 0 0-11zm13 0a5.5 5.5 0 0 0 0 11 5.5 5.5 0 0 0 0-11z" fill="#fff"/>
<path d="m24.5 12a5 5 0 0 1 0 10 5 5 0 0 1 0-10zm-13 0a5 5 0 0 1 0 10 5 5 0 0 1 0-10z"/>
<path d="m29 21c0 0.105-1.015 2-4.5 2s-4.5-1.895-4.5-2c-2-3.105 2.015 0 4.5 0s6.5-3.105 4.5 0zm-13 0c0 0.105-1.015 2-4.5 2s-4.5-1.895-4.5-2c-2-3.105 2.015 0 4.5 0s6.5-3.105 4.5 0z" fill="#5DADEC"/>
<path d="m10.385 12.967c-0.67421 0.019863-1.4075 0.33797-1.9941 0.92578-1.045 1.046-1.231 2.5513-0.41797 3.3633 0.814 0.813 2.3212 0.62508 3.3652-0.41992 1.044-1.046 1.229-2.5513 0.41602-3.3633-0.35569-0.35569-0.84475-0.52131-1.3691-0.50586zm13 0c-0.67421 0.019863-1.4075 0.33797-1.9941 0.92578-1.045 1.046-1.231 2.5513-0.41797 3.3633 0.814 0.813 2.3212 0.62508 3.3652-0.41992 1.044-1.046 1.229-2.5513 0.41602-3.3633-0.35569-0.35569-0.84475-0.52131-1.3691-0.50586zm-9.1777 5.0156c-0.29624 0.008859-0.61877 0.14806-0.87695 0.40625-0.458 0.459-0.54059 1.1196-0.18359 1.4766 0.357 0.357 1.0186 0.27541 1.4766-0.18359 0.46-0.459 0.54255-1.1215 0.18555-1.4785-0.15619-0.15619-0.37116-0.22759-0.60156-0.2207zm13 0c-0.29623 0.008859-0.61877 0.14806-0.87695 0.40625-0.458 0.459-0.54059 1.1196-0.18359 1.4766 0.357 0.357 1.0195 0.2754 1.4785-0.18359 0.458-0.459 0.54059-1.1215 0.18359-1.4785-0.15619-0.15619-0.37116-0.22759-0.60156-0.2207z" fill="#fff"/>
</svg>
